# xmcd
#
# Track frame offsets: 
#        150
#        9635
#        23068
#        36905
#        47832
#        57794
#        70945
#        84182
#        94349
#        104986
#        119921
#        134903
#
# Disc length: 1908 seconds
#
# Revision: 0
# Processed by: cddbd v1.5.2PL0 Copyright (c) Steve Scherf et al.
# Submitted via: ExactAudioCopy v1.0b1
#
DISCID=b107720c
DTITLE=The Country Gentlemen - River Bottom
DYEAR=1981
DGENRE=Bluegrass
TTITLE0=Riverboad Fantasy
TTITLE1=God's Coloring Book
TTITLE2=River Bottom
TTITLE3=Drifting Too Far From The Shore
TTITLE4=Coal Black Gold
TTITLE5=The In Crowd
TTITLE6=AppleBlossom Time In Annapolis Valley
TTITLE7=Electricity
TTITLE8=Lonesome Without You
TTITLE9=Loving Her Was Easier Then Anything I'll Ever Do
TTITLE10=Things In Life
TTITLE11=Honey Don't
EXTD=
EXTT0=
EXTT1=
EXTT2=
EXTT3=
EXTT4=
EXTT5=
EXTT6=
EXTT7=
EXTT8=
EXTT9=
EXTT10=
EXTT11=
PLAYORDER=
